<svg xmlns="http://www.w3.org/2000/svg" style="display: none;">
    <defs>
            <linearGradient id="python-original-a" gradientUnits="userSpaceOnUse"
                x1="70.252" y1="1237.476" x2="170.659" y2="1151.089"
                gradientTransform="matrix(.563 0 0 -.568 -29.215 707.817)">
                <stop offset="0" stop-color="#5A9FD4"></stop>
                <stop offset="1" stop-color="#306998"></stop>
            </linearGradient>
            
            <linearGradient id="python-original-b" gradientUnits="userSpaceOnUse"
                x1="209.474" y1="1098.811" x2="173.62" y2="1149.537"
                gradientTransform="matrix(.563 0 0 -.568 -29.215 707.817)">
                <stop offset="0" stop-color="#FFD43B"></stop>
                <stop offset="1" stop-color="#FFE873"></stop>
            </linearGradient>

            <radialGradient id="python-original-c"
                cx="1825.678" cy="444.45" r="26.743"
                gradientTransform="matrix(0 -.24 -1.055 0 532.979 557.576)"
                gradientUnits="userSpaceOnUse">
                <stop offset="0" stop-color="#B8B8B8" stop-opacity=".498"></stop>
                <stop offset="1" stop-color="#7F7F7F" stop-opacity="0"></stop>
            </radialGradient>
        </defs>
    <!-- HTML -->
    <symbol viewBox="0 0 128 128" id="icon_html">
              <path
                fill="#E44D26"
                d="M19.037 113.876L9.032 1.661h109.936l-10.016 112.198-45.019 12.48z"
              ></path>
              <path
                fill="#F16529"
                d="M64 116.8l36.378-10.086 8.559-95.878H64z"
              ></path>
              <path
                fill="#EBEBEB"
                d="M64 52.455H45.788L44.53 38.361H64V24.599H29.489l.33 3.692 3.382 37.927H64zm0 35.743l-.061.017-15.327-4.14-.979-10.975H33.816l1.928 21.609 28.193 7.826.063-.017z"
              ></path>
              <path
                fill="#fff"
                d="M63.952 52.455v13.763h16.947l-1.597 17.849-15.35 4.143v14.319l28.215-7.82.207-2.325 3.234-36.233.335-3.696h-3.708zm0-27.856v13.762h33.244l.276-3.092.628-6.978.329-3.692z"
              ></path>
    </symbol>

    <!-- CSS -->
    <symbol viewBox="0 0 128 128" id="icon_css">
        <path
        fill="#1572B6"
        d="M18.814 114.123L8.76 1.352h110.48l-10.064 112.754-45.243 12.543-45.119-12.526z"
        ></path>
        <path
        fill="#33A9DC"
        d="M64.001 117.062l36.559-10.136 8.601-96.354h-45.16v106.49z"
        ></path>
        <path
        fill="#fff"
        d="M64.001 51.429h18.302l1.264-14.163H64.001V23.435h34.682l-.332 3.711-3.4 38.114h-30.95V51.429z"
        ></path>
        <path
        fill="#EBEBEB"
        d="M64.083 87.349l-.061.018-15.403-4.159-.985-11.031H33.752l1.937 21.717 28.331 7.863.063-.018v-14.39z"
        ></path>
        <path
        fill="#fff"
        d="M81.127 64.675l-1.666 18.522-15.426 4.164v14.39l28.354-7.858.208-2.337 2.406-26.881H81.127z"
        ></path>
        <path
        fill="#EBEBEB"
        d="M64.048 23.435v13.831H30.64l-.277-3.108-.63-7.012-.331-3.711h34.646zm-.047 27.996v13.831H48.792l-.277-3.108-.631-7.012-.33-3.711h16.447z"
        ></path>
    </symbol>

    <!-- SASS -->
    <symbol viewBox="0 0 128 128" id="icon_sass">
        <path
        fill-rule="evenodd"
        clip-rule="evenodd"
        fill="#CB6699"
        d="M1.219 56.156c0 .703.207 1.167.323 1.618.756 2.933 2.381 5.45 4.309 7.746 2.746 3.272 6.109 5.906 9.554 8.383 2.988 2.148 6.037 4.248 9.037 6.38.515.366 1.002.787 1.561 1.236-.481.26-.881.489-1.297.7-3.959 2.008-7.768 4.259-11.279 6.986-2.116 1.644-4.162 3.391-5.607 5.674-2.325 3.672-3.148 7.584-1.415 11.761.506 1.22 1.278 2.274 2.367 3.053.353.252.749.502 1.162.6 1.058.249 2.136.412 3.207.609l3.033-.002c3.354-.299 6.407-1.448 9.166-3.352 4.312-2.976 7.217-6.966 8.466-12.087.908-3.722.945-7.448-.125-11.153a11.696 11.696 0 00-.354-1.014c-.13-.333-.283-.657-.463-1.072l6.876-3.954.103.088c-.125.409-.258.817-.371 1.23-.817 2.984-1.36 6.02-1.165 9.117.208 3.3 1.129 6.389 3.061 9.146 1.562 2.23 5.284 2.313 6.944.075.589-.795 1.16-1.626 1.589-2.513 1.121-2.315 2.159-4.671 3.23-7.011l.187-.428c-.077 1.108-.167 2.081-.208 3.055-.064 1.521.025 3.033.545 4.48.445 1.238 1.202 2.163 2.62 2.326.97.111 1.743-.333 2.456-.896a10.384 10.384 0 002.691-3.199c1.901-3.491 3.853-6.961 5.576-10.54 1.864-3.871 3.494-7.855 5.225-11.792l.286-.698c.409 1.607.694 3.181 1.219 4.671.61 1.729 1.365 3.417 2.187 5.058.389.775.344 1.278-.195 1.928-2.256 2.72-4.473 5.473-6.692 8.223-.491.607-.98 1.225-1.389 1.888a3.701 3.701 0 00-.48 1.364 1.737 1.737 0 001.383 1.971 9.661 9.661 0 002.708.193c3.097-.228 5.909-1.315 8.395-3.157 3.221-2.386 4.255-5.642 3.475-9.501-.211-1.047-.584-2.065-.947-3.074-.163-.455-.174-.774.123-1.198 2.575-3.677 4.775-7.578 6.821-11.569.081-.157.164-.314.306-.482.663 3.45 1.661 6.775 3.449 9.792-.912.879-1.815 1.676-2.632 2.554-1.799 1.934-3.359 4.034-4.173 6.595-.35 1.104-.619 2.226-.463 3.405.242 1.831 1.742 3.021 3.543 2.604 3.854-.892 7.181-2.708 9.612-5.925 1.636-2.166 1.785-4.582 1.1-7.113-.188-.688-.411-1.365-.651-2.154.951-.295 1.878-.649 2.837-.868 4.979-1.136 9.904-.938 14.702.86 2.801 1.05 5.064 2.807 6.406 5.571 1.639 3.379.733 6.585-2.452 8.721-.297.199-.637.356-.883.605a.869.869 0 00-.205.67c.021.123.346.277.533.275 1.047-.008 1.896-.557 2.711-1.121 2.042-1.413 3.532-3.314 3.853-5.817l.063-.188-.077-1.63c-.031-.094.023-.187.016-.258-.434-3.645-2.381-6.472-5.213-8.688-3.28-2.565-7.153-3.621-11.249-3.788a25.401 25.401 0 00-9.765 1.503c-.897.325-1.786.71-2.688 1.073-.121-.219-.251-.429-.358-.646-.926-1.896-2.048-3.708-2.296-5.882-.176-1.544-.392-3.086-.025-4.613.353-1.469.813-2.913 1.246-4.362.223-.746.066-1.164-.646-1.5a2.854 2.854 0 00-.786-.258c-1.75-.254-3.476-.109-5.171.384-.6.175-1.036.511-1.169 1.175-.076.381-.231.746-.339 1.122-.443 1.563-.757 3.156-1.473 4.645-1.794 3.735-3.842 7.329-5.938 10.897-.227.385-.466.763-.752 1.23-.736-1.54-1.521-2.922-1.759-4.542-.269-1.832-.481-3.661-.025-5.479.339-1.356.782-2.687 1.19-4.025.193-.636.104-.97-.472-1.305-.291-.169-.62-.319-.948-.368a11.643 11.643 0 00-5.354.438c-.543.176-.828.527-.994 1.087-.488 1.652-.904 3.344-1.589 4.915-2.774 6.36-5.628 12.687-8.479 19.013-.595 1.321-1.292 2.596-1.963 3.882-.17.326-.418.613-.63.919-.17-.201-.236-.339-.235-.477.005-.813-.092-1.65.063-2.436a172.189 172.189 0 011.578-7.099c.47-1.946 1.017-3.874 1.538-5.807.175-.647.178-1.252-.287-1.796-.781-.911-2.413-1.111-3.381-.409l-.428.242.083-.69c.204-1.479.245-2.953-.161-4.41-.506-1.816-1.802-2.861-3.686-2.803-.878.027-1.8.177-2.613.497-3.419 1.34-6.048 3.713-8.286 6.568a2.592 2.592 0 01-.757.654c-2.893 1.604-5.795 3.188-8.696 4.778l-3.229 1.769c-.866-.826-1.653-1.683-2.546-2.41-2.727-2.224-5.498-4.393-8.244-6.592-2.434-1.949-4.792-3.979-6.596-6.56-1.342-1.92-2.207-4.021-2.29-6.395-.105-3.025.753-5.789 2.293-8.362 1.97-3.292 4.657-5.934 7.611-8.327 3.125-2.53 6.505-4.678 10.008-6.639 4.901-2.743 9.942-5.171 15.347-6.774 5.542-1.644 11.165-2.585 16.965-1.929 2.28.258 4.494.78 6.527 1.895 1.557.853 2.834 1.97 3.428 3.716.586 1.718.568 3.459.162 5.204-.825 3.534-2.76 6.447-5.195 9.05-3.994 4.267-8.866 7.172-14.351 9.091a39.478 39.478 0 01-9.765 2.083c-2.729.229-5.401-.013-7.985-.962-1.711-.629-3.201-1.591-4.399-2.987-.214-.25-.488-.521-.887-.287-.391.23-.46.602-.329.979.219.626.421 1.278.762 1.838.857 1.405 2.107 2.424 3.483 3.298 2.643 1.681 5.597 2.246 8.66 2.377 4.648.201 9.183-.493 13.654-1.74 6.383-1.78 11.933-4.924 16.384-9.884 3.706-4.13 6.353-8.791 6.92-14.419.277-2.747-.018-5.438-1.304-7.944-1.395-2.715-3.613-4.734-6.265-6.125C68.756 18.179 64.588 17 60.286 17h-4.31c-5.21 0-10.247 1.493-15.143 3.274-3.706 1.349-7.34 2.941-10.868 4.703-7.683 3.839-14.838 8.468-20.715 14.833-2.928 3.171-5.407 6.67-6.833 10.79a40.494 40.494 0 00-1.111 3.746m27.839 36.013c-.333 4.459-2.354 8.074-5.657 11.002-1.858 1.646-3.989 2.818-6.471 3.23-.9.149-1.821.185-2.694-.188-1.245-.532-1.524-1.637-1.548-2.814-.037-1.876.62-3.572 1.521-5.186 1.176-2.104 2.9-3.708 4.741-5.206 2.9-2.361 6.046-4.359 9.268-6.245l.243-.1c.498 1.84.735 3.657.597 5.507zM54.303 70.98c-.235 1.424-.529 2.849-.945 4.229-1.438 4.777-3.285 9.406-5.282 13.973-.369.845-.906 1.616-1.373 2.417a1.689 1.689 0 01-.283.334c-.578.571-1.126.541-1.418-.206-.34-.868-.549-1.797-.729-2.716-.121-.617-.092-1.265-.13-1.897.039-4.494 1.41-8.578 3.736-12.38.959-1.568 2.003-3.062 3.598-4.054a6.27 6.27 0 011.595-.706c.85-.239 1.372.154 1.231 1.006zm17.164 21.868l6.169-7.203c.257 2.675-4.29 8.015-6.169 7.203zm19.703-4.847c-.436.25-.911.43-1.358.661-.409.212-.544-.002-.556-.354a2.385 2.385 0 01.093-.721c.833-2.938 2.366-5.446 4.647-7.486l.16-.082c1.085 3.035-.169 6.368-2.986 7.982z"
        ></path>
    </symbol>

    <!-- Tailwind CSS -->
    <symbol viewBox="0 0 128 128"  id="icon_tailwind">
        <path
        d="M64.004 25.602c-17.067 0-27.73 8.53-32 25.597 6.398-8.531 13.867-11.73 22.398-9.597 4.871 1.214 8.352 4.746 12.207 8.66C72.883 56.629 80.145 64 96.004 64c17.066 0 27.73-8.531 32-25.602-6.399 8.536-13.867 11.735-22.399 9.602-4.87-1.215-8.347-4.746-12.207-8.66-6.27-6.367-13.53-13.738-29.394-13.738zM32.004 64c-17.066 0-27.73 8.531-32 25.602C6.402 81.066 13.87 77.867 22.402 80c4.871 1.215 8.352 4.746 12.207 8.66 6.274 6.367 13.536 13.738 29.395 13.738 17.066 0 27.73-8.53 32-25.597-6.399 8.531-13.867 11.73-22.399 9.597-4.87-1.214-8.347-4.746-12.207-8.66C55.128 71.371 47.868 64 32.004 64zm0 0"
        fill="#38bdf8"
        ></path>
    </symbol>

    <!-- Javascript -->
    <symbol viewBox="0 0 128 128"  id="icon_js">
        <path fill="#F0DB4F" d="M1.408 1.408h125.184v125.185H1.408z"></path>
        <path
        fill="#323330"
        d="M116.347 96.736c-.917-5.711-4.641-10.508-15.672-14.981-3.832-1.761-8.104-3.022-9.377-5.926-.452-1.69-.512-2.642-.226-3.665.821-3.32 4.784-4.355 7.925-3.403 2.023.678 3.938 2.237 5.093 4.724 5.402-3.498 5.391-3.475 9.163-5.879-1.381-2.141-2.118-3.129-3.022-4.045-3.249-3.629-7.676-5.498-14.756-5.355l-3.688.477c-3.534.893-6.902 2.748-8.877 5.235-5.926 6.724-4.236 18.492 2.975 23.335 7.104 5.332 17.54 6.545 18.873 11.531 1.297 6.104-4.486 8.08-10.234 7.378-4.236-.881-6.592-3.034-9.139-6.949-4.688 2.713-4.688 2.713-9.508 5.485 1.143 2.499 2.344 3.63 4.26 5.795 9.068 9.198 31.76 8.746 35.83-5.176.165-.478 1.261-3.666.38-8.581zM69.462 58.943H57.753l-.048 30.272c0 6.438.333 12.34-.714 14.149-1.713 3.558-6.152 3.117-8.175 2.427-2.059-1.012-3.106-2.451-4.319-4.485-.333-.584-.583-1.036-.667-1.071l-9.52 5.83c1.583 3.249 3.915 6.069 6.902 7.901 4.462 2.678 10.459 3.499 16.731 2.059 4.082-1.189 7.604-3.652 9.448-7.401 2.666-4.915 2.094-10.864 2.07-17.444.06-10.735.001-21.468.001-32.237z"
        ></path>
    </symbol>

    <!-- NodeJS -->
    <symbol viewBox="0 0 128 128"  id="icon_node">
          <path fill="#5fa04e" d="M114.313 55.254a.26.26 0 0 0-.145.044l-2.346 1.37a.3.3 0 0 0-.142.26v2.74c0 .116.055.204.142.262l2.346 1.368a.262.262 0 0 0 .29 0l2.342-1.368a.308.308 0 0 0 .145-.263V56.93a.303.303 0 0 0-.145-.26l-2.343-1.371a.26.26 0 0 0-.144-.044zM63.22 71.638c-.427 0-.852.104-1.214.308l-11.549 6.727a2.457 2.457 0 0 0-1.214 2.124V94.22c0 .874.462 1.69 1.214 2.128l3.04 1.746c1.476.728 1.997.726 2.662.726 2.17 0 3.415-1.339 3.415-3.64V81.935a.356.356 0 0 0-.348-.351h-1.474a.356.356 0 0 0-.35.351v13.248c0 1.019-1.069 2.04-2.776 1.167l-3.155-1.835c-.116-.058-.175-.206-.175-.322V80.767c0-.116.059-.26.175-.319l11.545-6.697c.087-.058.233-.058.349 0l11.548 6.697c.115.059.172.174.172.32v13.424c0 .145-.057.264-.172.322l-11.548 6.727c-.087.058-.233.058-.349 0l-2.951-1.779c-.087-.058-.203-.087-.29-.029-.81.466-.952.527-1.734.789-.174.058-.463.173.115.493l3.85 2.302c.376.203.78.319 1.214.319.434 0 .867-.115 1.214-.26l11.549-6.727a2.463 2.463 0 0 0 1.214-2.128V80.797c0-.874-.462-1.687-1.214-2.124l-11.549-6.727a2.488 2.488 0 0 0-1.214-.308Zm18.03 6.13a2.236 2.236 0 0 0-2.227 2.243 2.236 2.236 0 0 0 2.227 2.242c1.217 0 2.228-1.019 2.228-2.242a2.254 2.254 0 0 0-2.228-2.242zm-.03.379a1.86 1.86 0 0 1 1.883 1.864c0 1.02-.84 1.894-1.882 1.894-1.012 0-1.852-.846-1.852-1.894s.869-1.864 1.852-1.864zm-.809.611v2.562h.494v-1.016h.434c.174 0 .231.058.26.203 0 .03.086.67.086.786h.52c-.058-.116-.087-.466-.116-.67-.028-.32-.056-.553-.404-.582.174-.059.463-.146.463-.612 0-.67-.58-.67-.868-.67zm.435.408h.404c.146 0 .376 0 .376.349 0 .116-.056.351-.376.351h-.405zm-14.47 2.01c-3.3 0-5.268 1.398-5.268 3.757 0 2.534 1.968 3.23 5.123 3.551 3.79.379 4.08.933 4.08 1.69 0 1.31-1.044 1.864-3.475 1.864-3.068 0-3.733-.758-3.965-2.301 0-.175-.142-.29-.316-.29H61.05a.35.35 0 0 0-.346.349c0 1.98 1.041 4.31 6.107 4.31 3.645 0 5.758-1.458 5.758-4.02 0-2.505-1.68-3.174-5.238-3.64-3.59-.466-3.965-.728-3.965-1.572 0-.699.318-1.63 2.98-1.63 2.373 0 3.269.525 3.617 2.126a.34.34 0 0 0 .319.26h1.533c.088 0 .175-.057.234-.115a.476.476 0 0 0 .085-.263c-.231-2.795-2.053-4.077-5.758-4.077z"></path><path fill="#333" d="M86.072 24.664a.71.71 0 0 0-.352.089.755.755 0 0 0-.375.638V44.32c0 .174-.09.35-.263.466a.549.549 0 0 1-.52 0l-3.066-1.775a1.486 1.486 0 0 0-1.478 0L67.75 50.146a1.48 1.48 0 0 0-.753 1.279v14.24c0 .524.29 1.02.753 1.282l12.27 7.135a1.486 1.486 0 0 0 1.477 0l12.269-7.135c.463-.262.753-.758.753-1.282V30.168c0-.553-.29-1.05-.753-1.311l-7.32-4.104a.836.836 0 0 0-.373-.089zM13.687 42.43c-.231 0-.462.084-.664.2L.753 49.739A1.493 1.493 0 0 0 0 51.047l.03 19.102c0 .263.143.525.375.642a.656.656 0 0 0 .724 0l7.294-4.193c.463-.262.75-.758.75-1.282v-8.94c0-.524.29-1.02.754-1.282l3.096-1.805c.231-.146.493-.204.753-.204s.521.058.724.204l3.096 1.805c.463.262.753.758.753 1.282v8.94c0 .524.288 1.02.75 1.282l7.236 4.193a.704.704 0 0 0 .753 0 .724.724 0 0 0 .376-.642V51.047c0-.524-.29-1.02-.754-1.283L14.47 42.63a1.763 1.763 0 0 0-.664-.201Zm100.667.21c-.253 0-.504.066-.736.198l-12.272 7.131c-.463.262-.75.758-.75 1.283v14.24c0 .524.287 1.02.75 1.282l12.184 6.987a1.43 1.43 0 0 0 1.447 0l7.38-4.133a.724.724 0 0 0 .375-.642.724.724 0 0 0-.375-.64L110.03 61.21a.76.76 0 0 1-.375-.641v-4.456a.72.72 0 0 1 .375-.64l3.85-2.214a.705.705 0 0 1 .753 0l3.846 2.213a.762.762 0 0 1 .378.641v3.495c0 .263.144.525.375.641a.704.704 0 0 0 .754 0l7.291-4.28a1.46 1.46 0 0 0 .724-1.283v-3.465c0-.524-.29-1.017-.724-1.28l-12.184-7.104a1.499 1.499 0 0 0-.738-.198zM80.757 53.274c.065 0 .131.015.19.045l4.194 2.446c.116.058.175.202.175.319v4.892c0 .146-.059.264-.175.322l-4.195 2.446a.431.431 0 0 1-.378 0l-4.195-2.446c-.116-.058-.175-.205-.175-.322v-4.892c0-.146.06-.261.175-.32l4.195-2.445a.425.425 0 0 1 .19-.045z"></path><path fill="url(#a)" d="M47.982 42.893a1.484 1.484 0 0 0-1.476 0L34.322 49.97a1.456 1.456 0 0 0-.724 1.281v14.181c0 .525.29 1.02.724 1.282l12.184 7.076a1.484 1.484 0 0 0 1.476 0l12.183-7.076c.463-.262.724-.757.724-1.282V51.251c0-.524-.29-1.02-.724-1.281z"></path><path fill="url(#b)" d="m60.194 49.97-12.241-7.077a1.996 1.996 0 0 0-.376-.145L33.859 66.364c.116.146.26.262.405.35l12.242 7.076c.347.204.752.262 1.128.145l12.879-23.703a.905.905 0 0 0-.319-.262z"></path><path fill="url(#c)" d="M60.194 66.713c.348-.204.608-.553.724-.932l-13.4-23.063c-.346-.058-.723-.029-1.041.175L34.322 49.94l13.11 24.053c.173-.029.376-.087.55-.175z"></path><defs><linearGradient id="a" x1="34.513" x2="27.157" y1="15.535" y2="30.448" gradientTransform="translate(0 24.664) scale(1.51263)" gradientUnits="userSpaceOnUse"><stop stop-color="#3F873F"></stop><stop offset=".33" stop-color="#3F8B3D"></stop><stop offset=".637" stop-color="#3E9638"></stop><stop offset=".934" stop-color="#3DA92E"></stop><stop offset="1" stop-color="#3DAE2B"></stop></linearGradient><linearGradient id="b" x1="30.009" x2="50.533" y1="23.359" y2="8.288" gradientTransform="translate(0 24.664) scale(1.51263)" gradientUnits="userSpaceOnUse"><stop offset=".138" stop-color="#3F873F"></stop><stop offset=".402" stop-color="#52A044"></stop><stop offset=".713" stop-color="#64B749"></stop><stop offset=".908" stop-color="#6ABF4B"></stop></linearGradient><linearGradient id="c" x1="21.917" x2="40.555" y1="22.261" y2="22.261" gradientTransform="translate(0 24.664) scale(1.51263)" gradientUnits="userSpaceOnUse"><stop offset=".092" stop-color="#6ABF4B"></stop><stop offset=".287" stop-color="#64B749"></stop><stop offset=".598" stop-color="#52A044"></stop><stop offset=".862" stop-color="#3F873F"></stop></linearGradient></defs>
    </symbol>

    <!-- React -->
     <symbol viewBox="0 0 128 128"  id="icon_react">
        <g fill="#61DAFB">
        <circle cx="64" cy="64" r="11.4"></circle>
        <path
            d="M107.3 45.2c-2.2-.8-4.5-1.6-6.9-2.3.6-2.4 1.1-4.8 1.5-7.1 2.1-13.2-.2-22.5-6.6-26.1-1.9-1.1-4-1.6-6.4-1.6-7 0-15.9 5.2-24.9 13.9-9-8.7-17.9-13.9-24.9-13.9-2.4 0-4.5.5-6.4 1.6-6.4 3.7-8.7 13-6.6 26.1.4 2.3.9 4.7 1.5 7.1-2.4.7-4.7 1.4-6.9 2.3C8.2 50 1.4 56.6 1.4 64s6.9 14 19.3 18.8c2.2.8 4.5 1.6 6.9 2.3-.6 2.4-1.1 4.8-1.5 7.1-2.1 13.2.2 22.5 6.6 26.1 1.9 1.1 4 1.6 6.4 1.6 7.1 0 16-5.2 24.9-13.9 9 8.7 17.9 13.9 24.9 13.9 2.4 0 4.5-.5 6.4-1.6 6.4-3.7 8.7-13 6.6-26.1-.4-2.3-.9-4.7-1.5-7.1 2.4-.7 4.7-1.4 6.9-2.3 12.5-4.8 19.3-11.4 19.3-18.8s-6.8-14-19.3-18.8zM92.5 14.7c4.1 2.4 5.5 9.8 3.8 20.3-.3 2.1-.8 4.3-1.4 6.6-5.2-1.2-10.7-2-16.5-2.5-3.4-4.8-6.9-9.1-10.4-13 7.4-7.3 14.9-12.3 21-12.3 1.3 0 2.5.3 3.5.9zM81.3 74c-1.8 3.2-3.9 6.4-6.1 9.6-3.7.3-7.4.4-11.2.4-3.9 0-7.6-.1-11.2-.4-2.2-3.2-4.2-6.4-6-9.6-1.9-3.3-3.7-6.7-5.3-10 1.6-3.3 3.4-6.7 5.3-10 1.8-3.2 3.9-6.4 6.1-9.6 3.7-.3 7.4-.4 11.2-.4 3.9 0 7.6.1 11.2.4 2.2 3.2 4.2 6.4 6 9.6 1.9 3.3 3.7 6.7 5.3 10-1.7 3.3-3.4 6.6-5.3 10zm8.3-3.3c1.5 3.5 2.7 6.9 3.8 10.3-3.4.8-7 1.4-10.8 1.9 1.2-1.9 2.5-3.9 3.6-6 1.2-2.1 2.3-4.2 3.4-6.2zM64 97.8c-2.4-2.6-4.7-5.4-6.9-8.3 2.3.1 4.6.2 6.9.2 2.3 0 4.6-.1 6.9-.2-2.2 2.9-4.5 5.7-6.9 8.3zm-18.6-15c-3.8-.5-7.4-1.1-10.8-1.9 1.1-3.3 2.3-6.8 3.8-10.3 1.1 2 2.2 4.1 3.4 6.1 1.2 2.2 2.4 4.1 3.6 6.1zm-7-25.5c-1.5-3.5-2.7-6.9-3.8-10.3 3.4-.8 7-1.4 10.8-1.9-1.2 1.9-2.5 3.9-3.6 6-1.2 2.1-2.3 4.2-3.4 6.2zM64 30.2c2.4 2.6 4.7 5.4 6.9 8.3-2.3-.1-4.6-.2-6.9-.2-2.3 0-4.6.1-6.9.2 2.2-2.9 4.5-5.7 6.9-8.3zm22.2 21l-3.6-6c3.8.5 7.4 1.1 10.8 1.9-1.1 3.3-2.3 6.8-3.8 10.3-1.1-2.1-2.2-4.2-3.4-6.2zM31.7 35c-1.7-10.5-.3-17.9 3.8-20.3 1-.6 2.2-.9 3.5-.9 6 0 13.5 4.9 21 12.3-3.5 3.8-7 8.2-10.4 13-5.8.5-11.3 1.4-16.5 2.5-.6-2.3-1-4.5-1.4-6.6zM7 64c0-4.7 5.7-9.7 15.7-13.4 2-.8 4.2-1.5 6.4-2.1 1.6 5 3.6 10.3 6 15.6-2.4 5.3-4.5 10.5-6 15.5C15.3 75.6 7 69.6 7 64zm28.5 49.3c-4.1-2.4-5.5-9.8-3.8-20.3.3-2.1.8-4.3 1.4-6.6 5.2 1.2 10.7 2 16.5 2.5 3.4 4.8 6.9 9.1 10.4 13-7.4 7.3-14.9 12.3-21 12.3-1.3 0-2.5-.3-3.5-.9zM96.3 93c1.7 10.5.3 17.9-3.8 20.3-1 .6-2.2.9-3.5.9-6 0-13.5-4.9-21-12.3 3.5-3.8 7-8.2 10.4-13 5.8-.5 11.3-1.4 16.5-2.5.6 2.3 1 4.5 1.4 6.6zm9-15.6c-2 .8-4.2 1.5-6.4 2.1-1.6-5-3.6-10.3-6-15.6 2.4-5.3 4.5-10.5 6-15.5 13.8 4 22.1 10 22.1 15.6 0 4.7-5.8 9.7-15.7 13.4z"
        ></path>
        </g>
    </symbol>

    <!-- ExpressJS -->
    <symbol viewBox="0 0 128 128"  id="icon_express">
        <path
        fill="white"
        d="M126.67 98.44c-4.56 1.16-7.38.05-9.91-3.75-5.68-8.51-11.95-16.63-18-24.9-.78-1.07-1.59-2.12-2.6-3.45C89 76 81.85 85.2 75.14 94.77c-2.4 3.42-4.92 4.91-9.4 3.7l26.92-36.13L67.6 29.71c4.31-.84 7.29-.41 9.93 3.45 5.83 8.52 12.26 16.63 18.67 25.21 6.45-8.55 12.8-16.67 18.8-25.11 2.41-3.42 5-4.72 9.33-3.46-3.28 4.35-6.49 8.63-9.72 12.88-4.36 5.73-8.64 11.53-13.16 17.14-1.61 2-1.35 3.3.09 5.19C109.9 76 118.16 87.1 126.67 98.44zM1.33 61.74c.72-3.61 1.2-7.29 2.2-10.83 6-21.43 30.6-30.34 47.5-17.06C60.93 41.64 63.39 52.62 62.9 65H7.1c-.84 22.21 15.15 35.62 35.53 28.78 7.15-2.4 11.36-8 13.47-15 1.07-3.51 2.84-4.06 6.14-3.06-1.69 8.76-5.52 16.08-13.52 20.66-12 6.86-29.13 4.64-38.14-4.89C5.26 85.89 3 78.92 2 71.39c-.15-1.2-.46-2.38-.7-3.57q.03-3.04.03-6.08zm5.87-1.49h50.43c-.33-16.06-10.33-27.47-24-27.57-15-.12-25.78 11.02-26.43 27.57z"
        ></path>
    </symbol>

    <!-- MySQL -->
    <symbol viewBox="0 0 128 128"  id="icon_mysql">
        <path
        fill="#00618A"
        d="M0 91.313h4.242V74.566l6.566 14.598c.773 1.77 1.832 2.391 3.914 2.391s3.098-.621 3.871-2.391l6.566-14.598v16.746h4.242V74.594c0-1.633-.652-2.422-2-2.828-3.223-1.004-5.383-.137-6.363 2.039l-6.441 14.41-6.238-14.41c-.937-2.176-3.14-3.043-6.359-2.039-1.348.406-2 1.195-2 2.828zM32.93 77.68h4.238v9.227c-.039.5.16 1.676 2.484 1.715h9.223V77.633h4.25c.02 0-.008 14.984-.008 15.047.023 3.695-4.582 4.496-6.707 4.559H33.02v-2.852l13.414-.004c2.73-.285 2.406-1.645 2.406-2.098v-1.113h-9.012c-4.195-.039-6.863-1.871-6.898-3.977-.004-.191.09-9.422 0-9.516zm0 0"
        ></path>
        <path
        fill="#E48E00"
        d="M56.391 91.313h12.195c1.426 0 2.813-.301 3.914-.816 1.836-.84 2.73-1.984 2.73-3.48v-3.098c0-1.223-1.016-2.367-3.016-3.125-1.059-.41-2.367-.625-3.629-.625h-5.141c-1.711 0-2.527-.516-2.73-1.656-.039-.137-.039-.246-.039-.383V76.2c0-.109 0-.219.039-.355.203-.867.652-1.113 2.16-1.25l.41-.027h12.109v-2.824H63.488c-1.711 0-2.609.109-3.426.352-2.527.789-3.629 2.039-3.629 4.215v2.473c0 1.902 2.16 3.535 5.789 3.914l1.223.055h4.406c.164 0 .324 0 .449.027 1.344.109 1.914.355 2.324.844.211.195.332.473.324.758v2.477c0 .297-.203.68-.609 1.004-.367.328-.98.543-1.793.598l-.449.027H56.391zm45.297-4.922c0 2.91 2.164 4.539 6.523 4.867l1.227.055h11.051v-2.828h-11.133c-2.488 0-3.426-.625-3.426-2.121V71.738h-4.238V86.39zm-23.75.148V76.457c0-2.559 1.801-4.113 5.355-4.602a7.976 7.976 0 0 1 1.145-.082h8.047c.41 0 .777.027 1.188.082 3.555.488 5.352 2.043 5.352 4.602v10.082c0 2.078-.762 3.188-2.523 3.914l4.18 3.77h-4.926l-3.379-3.051-3.402.215H84.44a9.23 9.23 0 0 1-2.492-.352c-2.699-.734-4.008-2.152-4.008-4.496zm4.578-.246c0 .137.039.273.082.438.246 1.172 1.348 1.824 3.023 1.824h3.852l-3.539-3.195h4.926l3.086 2.789c.57-.305.941-.766 1.074-1.363.039-.137.039-.273.039-.41v-9.668c0-.109 0-.246-.039-.383-.246-1.09-1.348-1.715-2.984-1.715h-6.414c-1.879 0-3.105.816-3.105 2.098zm0 0"
        ></path>
        <path
        fill="#00618A"
        d="M124.219 67.047c-2.605-.07-4.598.172-6.301.891-.484.203-1.258.207-1.336.813.266.281.309.699.52 1.039.406.66 1.094 1.539 1.707 2l2.074 1.484c1.273.777 2.699 1.223 3.93 2 .723.461 1.441 1.039 2.148 1.559.348.254.582.656 1.039.816v-.074c-.238-.305-.301-.723-.52-1.039l-.965-.965c-.941-1.25-2.137-2.348-3.41-3.262-1.016-.727-3.281-1.711-3.707-2.891l-.074-.074c.719-.078 1.563-.34 2.223-.516 1.117-.301 2.113-.223 3.262-.52l1.559-.449v-.293c-.582-.598-.996-1.387-1.633-1.93-1.656-1.41-3.469-2.824-5.336-4.004-1.035-.652-2.312-1.074-3.41-1.629-.367-.187-1.016-.281-1.262-.594-.574-.734-.887-1.664-1.332-2.52l-2.668-5.633c-.562-1.285-.93-2.555-1.633-3.707-3.363-5.535-6.988-8.875-12.602-12.156-1.191-.699-2.633-.973-4.148-1.332l-2.449-.148c-.496-.211-1.012-.82-1.48-1.113-1.859-1.176-6.629-3.73-8.008-.371-.867 2.121 1.301 4.191 2.078 5.266.543.754 1.242 1.598 1.629 2.445.258.555.301 1.113.52 1.703.539 1.453 1.008 3.031 1.707 4.375.352.68.738 1.395 1.184 2 .273.371.742.539.816 1.113-.457.641-.484 1.633-.742 2.445-1.16 3.652-.723 8.191.965 10.898.516.828 1.734 2.609 3.41 1.926 1.465-.598 1.137-2.445 1.555-4.078.098-.367.039-.641.223-.887v.074l1.336 2.668c.988 1.59 2.738 3.25 4.223 4.371.773.582 1.379 1.59 2.375 1.93V68.6h-.074c-.195-.297-.496-.422-.742-.664-.582-.57-1.227-1.277-1.703-1.93-1.352-1.832-2.547-3.84-3.633-5.93-.52-.996-.973-2.098-1.41-3.113-.168-.391-.164-.984-.516-1.184-.48.742-1.187 1.344-1.559 2.223-.594 1.402-.668 3.117-.891 4.891l-.148.074c-1.031-.25-1.395-1.312-1.777-2.223-.973-2.305-1.152-6.02-.297-8.672.219-.687 1.219-2.852.813-3.484-.191-.633-.828-1-1.184-1.484a11.7 11.7 0 0 1-1.187-2.074c-.793-1.801-1.164-3.816-2-5.633-.398-.871-1.074-1.75-1.629-2.523-.617-.855-1.305-1.484-1.781-2.52-.168-.367-.398-.957-.148-1.336.078-.254.195-.359.445-.441.43-.332 1.629.109 2.074.293 1.191.496 2.184.965 3.191 1.633.48.32.969.941 1.555 1.113h.668c1.043.238 2.211.07 3.188.367 1.723.523 3.27 1.34 4.668 2.227 4.273 2.695 7.766 6.535 10.156 11.117.387.738.551 1.441.891 2.223.684 1.578 1.543 3.203 2.223 4.746s1.34 3.094 2.297 4.375c.504.672 2.453 1.031 3.336 1.406.621.262 1.637.535 2.223.891 1.125.676 2.211 1.48 3.266 2.223.523.375 2.141 1.188 2.223 1.855zM91.082 38.805a5.26 5.26 0 0 0-1.332.148v.074h.074c.258.535.715.879 1.035 1.336l.742 1.555.074-.07c.461-.324.668-.844.668-1.633-.187-.195-.211-.437-.371-.668-.211-.309-.621-.48-.891-.742zm0 0"
        ></path>
    </symbol>

    <!-- MongoDB -->
    <symbol viewBox="0 0 128 128"  id="icon_mongo">
        <path
        fill-rule="evenodd"
        clip-rule="evenodd"
        fill="#439934"
        d="M88.038 42.812c1.605 4.643 2.761 9.383 3.141 14.296.472 6.095.256 12.147-1.029 18.142-.035.165-.109.32-.164.48-.403.001-.814-.049-1.208.012-3.329.523-6.655 1.065-9.981 1.604-3.438.557-6.881 1.092-10.313 1.687-1.216.21-2.721-.041-3.212 1.641-.014.046-.154.054-.235.08l.166-10.051-.169-24.252 1.602-.275c2.62-.429 5.24-.864 7.862-1.281 3.129-.497 6.261-.98 9.392-1.465 1.381-.215 2.764-.412 4.148-.618z"
        ></path>
        <path
        fill-rule="evenodd"
        clip-rule="evenodd"
        fill="#45A538"
        d="M61.729 110.054c-1.69-1.453-3.439-2.842-5.059-4.37-8.717-8.222-15.093-17.899-18.233-29.566-.865-3.211-1.442-6.474-1.627-9.792-.13-2.322-.318-4.665-.154-6.975.437-6.144 1.325-12.229 3.127-18.147l.099-.138c.175.233.427.439.516.702 1.759 5.18 3.505 10.364 5.242 15.551 5.458 16.3 10.909 32.604 16.376 48.9.107.318.384.579.583.866l-.87 2.969z"
        ></path>
        <path
        fill-rule="evenodd"
        clip-rule="evenodd"
        fill="#46A037"
        d="M88.038 42.812c-1.384.206-2.768.403-4.149.616-3.131.485-6.263.968-9.392 1.465-2.622.417-5.242.852-7.862 1.281l-1.602.275-.012-1.045c-.053-.859-.144-1.717-.154-2.576-.069-5.478-.112-10.956-.18-16.434-.042-3.429-.105-6.857-.175-10.285-.043-2.13-.089-4.261-.185-6.388-.052-1.143-.236-2.28-.311-3.423-.042-.657.016-1.319.029-1.979.817 1.583 1.616 3.178 2.456 4.749 1.327 2.484 3.441 4.314 5.344 6.311 7.523 7.892 12.864 17.068 16.193 27.433z"
        ></path>
        <path
        fill-rule="evenodd"
        clip-rule="evenodd"
        fill="#409433"
        d="M65.036 80.753c.081-.026.222-.034.235-.08.491-1.682 1.996-1.431 3.212-1.641 3.432-.594 6.875-1.13 10.313-1.687 3.326-.539 6.652-1.081 9.981-1.604.394-.062.805-.011 1.208-.012-.622 2.22-1.112 4.488-1.901 6.647-.896 2.449-1.98 4.839-3.131 7.182a49.142 49.142 0 01-6.353 9.763c-1.919 2.308-4.058 4.441-6.202 6.548-1.185 1.165-2.582 2.114-3.882 3.161l-.337-.23-1.214-1.038-1.256-2.753a41.402 41.402 0 01-1.394-9.838l.023-.561.171-2.426c.057-.828.133-1.655.168-2.485.129-2.982.241-5.964.359-8.946z"
        ></path>
        <path
        fill-rule="evenodd"
        clip-rule="evenodd"
        fill="#4FAA41"
        d="M65.036 80.753c-.118 2.982-.23 5.964-.357 8.947-.035.83-.111 1.657-.168 2.485l-.765.289c-1.699-5.002-3.399-9.951-5.062-14.913-2.75-8.209-5.467-16.431-8.213-24.642a4498.887 4498.887 0 00-6.7-19.867c-.105-.31-.407-.552-.617-.826l4.896-9.002c.168.292.39.565.496.879a6167.476 6167.476 0 016.768 20.118c2.916 8.73 5.814 17.467 8.728 26.198.116.349.308.671.491 1.062l.67-.78-.167 10.052z"
        ></path>
        <path
        fill-rule="evenodd"
        clip-rule="evenodd"
        fill="#4AA73C"
        d="M43.155 32.227c.21.274.511.516.617.826a4498.887 4498.887 0 016.7 19.867c2.746 8.211 5.463 16.433 8.213 24.642 1.662 4.961 3.362 9.911 5.062 14.913l.765-.289-.171 2.426-.155.559c-.266 2.656-.49 5.318-.814 7.968-.163 1.328-.509 2.632-.772 3.947-.198-.287-.476-.548-.583-.866-5.467-16.297-10.918-32.6-16.376-48.9a3888.972 3888.972 0 00-5.242-15.551c-.089-.263-.34-.469-.516-.702l3.272-8.84z"
        ></path>
        <path
        fill-rule="evenodd"
        clip-rule="evenodd"
        fill="#57AE47"
        d="M65.202 70.702l-.67.78c-.183-.391-.375-.714-.491-1.062-2.913-8.731-5.812-17.468-8.728-26.198a6167.476 6167.476 0 00-6.768-20.118c-.105-.314-.327-.588-.496-.879l6.055-7.965c.191.255.463.482.562.769 1.681 4.921 3.347 9.848 5.003 14.778 1.547 4.604 3.071 9.215 4.636 13.813.105.308.47.526.714.786l.012 1.045c.058 8.082.115 16.167.171 24.251z"
        ></path>
        <path
        fill-rule="evenodd"
        clip-rule="evenodd"
        fill="#60B24F"
        d="M65.021 45.404c-.244-.26-.609-.478-.714-.786-1.565-4.598-3.089-9.209-4.636-13.813-1.656-4.93-3.322-9.856-5.003-14.778-.099-.287-.371-.514-.562-.769 1.969-1.928 3.877-3.925 5.925-5.764 1.821-1.634 3.285-3.386 3.352-5.968.003-.107.059-.214.145-.514l.519 1.306c-.013.661-.072 1.322-.029 1.979.075 1.143.259 2.28.311 3.423.096 2.127.142 4.258.185 6.388.069 3.428.132 6.856.175 10.285.067 5.478.111 10.956.18 16.434.008.861.098 1.718.152 2.577z"
        ></path>
        <path
        fill-rule="evenodd"
        clip-rule="evenodd"
        fill="#A9AA88"
        d="M62.598 107.085c.263-1.315.609-2.62.772-3.947.325-2.649.548-5.312.814-7.968l.066-.01.066.011a41.402 41.402 0 001.394 9.838c-.176.232-.425.439-.518.701-.727 2.05-1.412 4.116-2.143 6.166-.1.28-.378.498-.574.744l-.747-2.566.87-2.969z"
        ></path>
        <path
        fill-rule="evenodd"
        clip-rule="evenodd"
        fill="#B6B598"
        d="M62.476 112.621c.196-.246.475-.464.574-.744.731-2.05 1.417-4.115 2.143-6.166.093-.262.341-.469.518-.701l1.255 2.754c-.248.352-.59.669-.728 1.061l-2.404 7.059c-.099.283-.437.483-.663.722l-.695-3.985z"
        ></path>
        <path
        fill-rule="evenodd"
        clip-rule="evenodd"
        fill="#C2C1A7"
        d="M63.171 116.605c.227-.238.564-.439.663-.722l2.404-7.059c.137-.391.48-.709.728-1.061l1.215 1.037c-.587.58-.913 1.25-.717 2.097l-.369 1.208c-.168.207-.411.387-.494.624-.839 2.403-1.64 4.819-2.485 7.222-.107.305-.404.544-.614.812-.109-1.387-.22-2.771-.331-4.158z"
        ></path>
        <path
        fill-rule="evenodd"
        clip-rule="evenodd"
        fill="#CECDB7"
        d="M63.503 120.763c.209-.269.506-.508.614-.812.845-2.402 1.646-4.818 2.485-7.222.083-.236.325-.417.494-.624l-.509 5.545c-.136.157-.333.294-.398.477-.575 1.614-1.117 3.24-1.694 4.854-.119.333-.347.627-.525.938-.158-.207-.441-.407-.454-.623-.051-.841-.016-1.688-.013-2.533z"
        ></path>
        <path
        fill-rule="evenodd"
        clip-rule="evenodd"
        fill="#DBDAC7"
        d="M63.969 123.919c.178-.312.406-.606.525-.938.578-1.613 1.119-3.239 1.694-4.854.065-.183.263-.319.398-.477l.012 3.64-1.218 3.124-1.411-.495z"
        ></path>
        <path
        fill-rule="evenodd"
        clip-rule="evenodd"
        fill="#EBE9DC"
        d="M65.38 124.415l1.218-3.124.251 3.696-1.469-.572z"
        ></path>
        <path
        fill-rule="evenodd"
        clip-rule="evenodd"
        fill="#CECDB7"
        d="M67.464 110.898c-.196-.847.129-1.518.717-2.097l.337.23-1.054 1.867z"
        ></path>
        <path
        fill-rule="evenodd"
        clip-rule="evenodd"
        fill="#4FAA41"
        d="M64.316 95.172l-.066-.011-.066.01.155-.559-.023.56z"
        ></path>
    </symbol>

    <!-- Jupyter Notebook -->
    <symbol viewBox="0 0 128 128"  id="icon_jupy">
        <path
        d="M6.648 67.352c0 3.91-.363 5.183-1.296 6.12-1.036.81-2.383 1.255-3.782 1.255l.364 2.234c2.164.023 4.265-.637 5.906-1.856.883-.93 1.539-2 1.93-3.152a7.79 7.79 0 00.347-3.55V53.608H6.648zm0 0M32.531 65.59c0 1.676 0 3.172.153 4.469h-3.082l-.207-2.66c-.645.94-1.567 1.718-2.672 2.25a8.055 8.055 0 01-3.621.788c-3.004 0-6.579-1.406-6.579-7.148v-9.543h3.473v8.938c0 3.105 1.113 5.183 4.246 5.183a5.472 5.472 0 001.883-.308 4.993 4.993 0 001.594-.914 4.197 4.197 0 001.058-1.375 3.638 3.638 0 00.36-1.625V53.633h3.468V65.5zm0 0M39.11 59.063c0-2.079 0-3.778-.157-5.317h3.11l.152 2.793c.695-1.012 1.691-1.84 2.887-2.398A8.493 8.493 0 0149 53.363c4.613 0 8.082 3.332 8.082 8.29 0 5.855-4.168 8.761-8.676 8.761a7.606 7.606 0 01-3.332-.621c-1.027-.45-1.906-1.121-2.547-1.95v8.938H39.11zm3.417 4.355c.008.406.063.812.157 1.207.293.992.96 1.871 1.898 2.5s2.094.965 3.281.965c3.653 0 5.801-2.57 5.801-6.3 0-3.263-2.02-6.056-5.672-6.056-1.445.102-2.797.653-3.804 1.555-1.004.902-1.598 2.086-1.66 3.336zm0 0M63.266 53.73l4.172 9.63a50.836 50.836 0 011.214 3.328c.364-.981.75-2.235 1.22-3.395l3.78-9.563h3.653l-5.18 11.618c-2.59 5.586-4.172 8.468-6.555 10.21-1.199.95-2.664 1.61-4.246 1.922l-.855-2.5a9.76 9.76 0 003.031-1.453c1.262-.89 2.266-2.023 2.926-3.308a2.05 2.05 0 00.285-.715 2.342 2.342 0 00-.234-.781l-7.043-15.04h3.78zm0 0M86.516 49.043v4.691h4.972v2.235h-4.972v8.804c0 2.012.675 3.172 2.59 3.172a8.95 8.95 0 002.019-.203l.156 2.238a9.845 9.845 0 01-3.082.399 5.507 5.507 0 01-2.035-.27 4.921 4.921 0 01-1.719-.98c-1.054-1.219-1.535-2.734-1.347-4.246v-8.938h-2.953v-2.234h3.003v-3.977zm0 0M97.883 62.418c-.07.758.05 1.52.355 2.23a5.218 5.218 0 001.407 1.899c.625.539 1.375.953 2.203 1.215.824.265 1.71.367 2.586.308a14.312 14.312 0 005.18-.851l.597 2.234a17.75 17.75 0 01-6.344 1.008c-1.27.074-2.539-.09-3.726-.477a9.07 9.07 0 01-3.153-1.777c-.89-.781-1.578-1.719-2.008-2.75a6.664 6.664 0 01-.492-3.219c0-4.918 3.395-8.804 8.938-8.804 6.215 0 7.77 4.691 7.77 7.687.03.461.03.922 0 1.383H97.804zm10.152-2.234a3.67 3.67 0 00-.144-1.79 4.075 4.075 0 00-.993-1.57 4.844 4.844 0 00-1.656-1.078 5.534 5.534 0 00-2.023-.39c-1.422.09-2.758.632-3.739 1.527-.984.89-1.543 2.066-1.57 3.3zm0 0M116.46 58.809c0-1.918 0-3.575-.155-5.094h3.11v3.195h.155c.325-.984 1-1.86 1.926-2.5.93-.64 2.067-1.015 3.254-1.074.324-.035.656-.035.984 0v2.793a6.071 6.071 0 00-1.191 0c-1.176.039-2.297.445-3.148 1.144-.856.7-1.383 1.645-1.489 2.653-.097.46-.148.922-.156 1.386v8.692h-3.418V58.832zm0 0"
        fill="#4e4e4e"
        ></path>
        <path
        d="M109.766 7.281a7.691 7.691 0 01-1.09 4.282 7.583 7.583 0 01-3.262 2.949 7.49 7.49 0 01-4.34.62 7.525 7.525 0 01-3.953-1.913A7.642 7.642 0 0195.137 5a7.606 7.606 0 012.629-3.531 7.509 7.509 0 014.136-1.461 7.51 7.51 0 015.422 1.996 7.627 7.627 0 012.438 5.273zm0 0"
        fill="#767677"
        ></path>
        <path
        d="M65.758 96.79c-20.098 0-37.649-7.364-46.766-18.267a49.95 49.95 0 0018.102 24.254 49.251 49.251 0 0028.676 9.215 49.279 49.279 0 0028.675-9.215 49.917 49.917 0 0018.094-24.254C103.406 89.426 85.855 96.79 65.758 96.79zm0 0M65.75 25.883c20.098 0 37.652 7.367 46.766 18.265a49.95 49.95 0 00-18.102-24.253 49.27 49.27 0 00-28.672-9.22 49.27 49.27 0 00-28.672 9.22A49.909 49.909 0 0018.97 44.148C28.102 33.27 45.652 25.883 65.75 25.883zm0 0"
        fill="#f37726"
        ></path>
        <path
        d="M38.164 117.984a9.671 9.671 0 01-1.371 5.399 9.5 9.5 0 01-9.59 4.504 9.405 9.405 0 01-4.98-2.418 9.671 9.671 0 01-2.809-4.797 9.73 9.73 0 01.313-5.567 9.624 9.624 0 013.328-4.453 9.466 9.466 0 0112.043.688 9.63 9.63 0 013.066 6.648zm0 0"
        fill="#9e9e9e"
        ></path>
        <path
        d="M21.285 23.418a5.53 5.53 0 01-3.14-.816 5.627 5.627 0 01-2.618-5.672 5.612 5.612 0 011.407-2.95 5.593 5.593 0 012.789-1.664 5.46 5.46 0 013.238.184 5.539 5.539 0 012.586 1.969 5.66 5.66 0 01-.399 7.129 5.557 5.557 0 01-3.867 1.82zm0 0"
        fill="#616262"
        ></path>
    </symbol>

    <!-- Anaconda -->
    <symbol viewBox="0 0 128 128"  id="icon_anac">
        <path
        d="M59.3 127.602c-11.206-1.075-21.253-4.403-29.288-9.7l-1.688-1.113-.406-3.133c-.45-3.488-.922-9.035-.918-10.86v-1.19l5.242-.043c2.883-.024 6.117-.133 7.188-.25 1.699-.18 2.035-.149 2.652.238 5.715 3.586 14.445 5.965 21.871 5.957 11.899-.008 22.414-4.395 30.902-12.89 3.754-3.759 5.817-6.583 8.07-11.06 6.188-12.273 6.321-26.316.372-38.601-5.89-12.16-17.375-21.094-30.5-23.719-3.383-.68-8.043-1.039-10.828-.84l-2.27.165.574-.813c.32-.445 2.426-2.7 4.684-5.008l4.106-4.195-1.688-1.57C64.988 6.75 61.691 4 59.219 2.168L57.102.602l.796-.188C59.473.043 68.664.156 71.953.586c27.024 3.531 48.594 23.16 54.45 49.555 1.917 8.629 1.956 18.187.117 27.117-2.325 11.27-8.235 22.383-16.442 30.91A64.013 64.013 0 0169.906 127.5c-2.547.238-8.594.293-10.605.102zm-39.987-18.344c-3.622-3.617-8.516-9.492-8.184-9.824.062-.063 1.43.156 3.035.48 2.438.496 7.922 1.328 8.75 1.328.125 0 .23 1.035.234 2.352.004 2.156.23 5.246.618 8.437.109.899.07 1.266-.13 1.266-.156 0-2.105-1.817-4.323-4.04zM27 96.336c0-1.941.504-7.723.691-7.926.09-.094.852.738 1.696 1.852.84 1.117 2.746 3.23 4.234 4.695l2.703 2.672H27zm-4.945.887c-4.032-.496-12.22-2.07-12.871-2.473-.2-.125.039-1.094.84-3.41 1.058-3.047 3.554-9.035 3.945-9.453.097-.102 1.414.457 2.926 1.246 1.515.789 3.71 1.844 4.886 2.351l2.133.914-.148 1.102c-.34 2.57-.614 6.047-.618 7.898-.003 1.094-.09 1.973-.187 1.954-.102-.02-.508-.079-.906-.13zM4.527 86.852a68.035 68.035 0 01-3.082-10.657C.7 72.5.723 72.473 3.02 74.285c1.062.84 3.097 2.32 4.52 3.285 1.42.97 2.585 1.801 2.585 1.844 0 .047-.445 1.047-.988 2.219a109.642 109.642 0 00-2.075 4.906c-.597 1.523-1.164 2.86-1.265 2.965-.098.105-.668-1.09-1.27-2.652zm17.34-6.235c-1.851-.851-5.21-2.566-5.668-2.89-.094-.067 2.383-4.149 3.645-6.004l.988-1.457.172.726c1.105 4.625 1.77 6.977 2.457 8.688.45 1.12.805 2.035.793 2.035-.016-.004-1.09-.496-2.387-1.098zM9.25 73.38c-2.602-1.817-6.95-5.238-7.223-5.68-.257-.418 8.602-9.004 9.293-9.004.114 0 1.075 1.14 2.133 2.532 1.063 1.394 2.48 3.164 3.156 3.933.676.77 1.23 1.45 1.23 1.512 0 .062-.85 1.387-1.894 2.941-1.039 1.551-2.246 3.45-2.675 4.211-.43.762-.918 1.387-1.09 1.387-.168 0-1.489-.824-2.93-1.832zM.242 61.824c.035-3.027 1.055-9.922 2.055-13.883.992-3.921.797-3.894 2.598-.332.867 1.723 2.058 3.934 2.64 4.918l1.059 1.782-1.828 1.566c-1.004.86-2.883 2.605-4.176 3.875C1.297 61.023.242 61.957.242 61.824zm19.38-.793c-1.903-2.27-4.177-5.422-4.056-5.617.164-.266 2.973-2.172 5.258-3.57 1.531-.938 1.649-.973 1.496-.457-.562 1.925-1.36 5.972-1.582 8.02-.144 1.316-.285 2.421-.316 2.452-.031.032-.39-.343-.8-.828zm-8.364-12.07c-2.5-4.356-5.387-10.586-5.051-10.895.54-.504 9.703-3.07 12.41-3.476l1.055-.16.531 3.215c.29 1.77.777 4.253 1.086 5.523l.559 2.312-1.98 1.125c-1.09.622-3.177 1.926-4.634 2.899l-2.648 1.77zm14.805-9.977a161.737 161.737 0 01-.708-4.062l-.203-1.36 1.23-.144c.68-.078 2.532-.215 4.118-.3l2.887-.153-.989 1.055c-1.632 1.742-3.488 4.082-4.695 5.93l-1.137 1.737zm-16.16-8.816c1.648-2.793 6.855-9.422 8.62-10.98l.52-.461v10.132l-2.11.41c-1.835.356-5.757 1.313-7.152 1.743-.426.133-.418.062.121-.844zm14.73-8.176c.043-3.324.14-6.105.219-6.183.27-.274 11.554 1.972 11.98 2.382.04.04-.3 1.301-.754 2.809-.457 1.512-1.02 3.57-1.254 4.574l-.426 1.836-3.398.15c-1.871.082-4.086.222-4.922.312l-1.523.164zm16.105 4.942c0-.11.957-3.567 1.465-5.286l.477-1.609 2.945 1.211c3.902 1.605 3.813 1.547 2.941 1.91-2.035.856-5.39 2.48-6.421 3.117-1.094.672-1.407.817-1.407.657zm10.848-9.688c-.863-.433-2.723-1.254-4.133-1.824l-2.566-1.035.25-.715c.316-.906 3.847-7.985 4.508-9.04l.496-.792 1.507 1.015c1.973 1.336 5.598 4.047 6.793 5.086l.95.825-2.52 2.875c-1.383 1.578-2.785 3.214-3.117 3.632l-.602.766zm-15.79-5.578a145.584 145.584 0 00-4.698-1.117l-1.57-.324 2.124-1.262a82.044 82.044 0 013.86-2.133c1.855-.937 7.449-3.242 7.57-3.121.04.039-.39.984-.96 2.098-.567 1.113-1.458 3-1.977 4.195-.52 1.191-1.004 2.234-1.079 2.312-.074.079-1.546-.214-3.27-.648zm0 0"
        fill="#3eb049"
        ></path>
    </symbol>

    <!-- Numpy -->
    <symbol viewBox="0 0 128 128"  id="icon_numpy">
        <path
        fill="#4DABCF"
        d="m55.012 26.006-21.38-10.789L10.154 26.93l21.969 11.027Zm9.808 4.951L87.241 42.28 63.982 53.955l-22-11.043Zm29.948-15.581 23.037 11.552L97.2 37.272 74.735 25.938ZM84.853 10.4 64.113 0 43.598 10.24 64.97 21.014ZM68.64 99.702V128l25.122-12.537-.023-28.31ZM93.727 77.27l-.028-28.012-25.06 12.458V89.74Zm30.158-5.246v28.41l-21.43 10.69-.017-28.279zm0-9.935V34.25l-21.47 10.673.016 28.068z"
        ></path>
        <path
        fill="#4c75cf"
        d="m59.77 61.716-16.918-8.512V89.97s-20.7-44.033-22.612-47.99c-.246-.513-1.263-1.07-1.522-1.209-3.731-1.947-14.603-7.45-14.603-7.45v64.977l15.04 8.063V72.382s20.478 39.346 20.689 39.78c.214.429 2.257 4.57 4.459 6.028 2.92 1.939 15.458 9.477 15.458 9.477z"
        ></path>
    </symbol>

    <!-- Pandas -->
    <symbol viewBox="0 0 128 128"  id="icon_pandas">
        <path
        fill="#130754"
        d="M46.236 7.567h13.99v29.047h-13.99Zm0 59.668h13.99V96.28h-13.99Z"
        ></path>
        <path fill="#ffca00" d="M46.236 45.092h13.99v13.705h-13.99Z"></path>
        <path
        fill="#130754"
        d="M23.763 31.446h13.989V128h-13.99ZM68.245 91.2h13.99v29.046h-13.99Zm0-59.72h13.99v29.047h-13.99Z"
        ></path>
        <path fill="#e70488" d="M68.245 69.011h13.99v13.705h-13.99Z"></path>
        <path fill="#130754" d="M90.248 0h13.99v96.554h-13.99Z"></path>
    </symbol>

    <!-- Jest -->
    <symbol viewBox="0 0 128 128"  id="icon_jest">
        <path
        fill="#99425B"
        d="M124.129 63.02c0-7.692-5.828-14.165-13.652-16.012L128 .113H41.16l17.563 47.043c-7.578 1.996-13.164 8.356-13.164 15.903 0 5.546 3.058 10.464 7.703 13.496-1.832 2.367-3.953 4.55-6.356 6.62-4.523 3.848-9.539 6.805-14.957 8.766-4.89-2.996-7.008-8.285-5.094-13.02 7.457-2.07 12.88-8.394 12.88-15.827 0-9.133-8.192-16.532-18.22-16.532-10.066 0-18.253 7.434-18.253 16.57 0 4.513 2.035 8.653 5.297 11.61-.286.52-.57 1.035-.856 1.59C4.973 81.438 1.875 87.207.691 93.68c-2.363 12.941 1.508 23.336 10.84 29.215 5.258 3.293 11.047 4.957 17.282 4.957 10.714 0 21.597-4.883 32.109-9.618 7.5-3.363 15.242-6.879 22.863-8.578 2.813-.629 5.746-1 8.844-1.406 6.273-.813 12.754-1.664 18.582-4.734 6.805-3.586 11.45-9.579 12.797-16.457 1.015-5.29 0-10.614-2.61-15.274a15.35 15.35 0 002.73-8.765zm-7.945 0c0 5.14-4.606 9.32-10.27 9.32s-10.27-4.18-10.27-9.32c0-1.665.489-3.254 1.344-4.622.325-.52.735-1.035 1.14-1.48a8.517 8.517 0 011.427-1.219l.043-.039c.324-.222.691-.445 1.058-.664 0 0 .04 0 .04-.039.163-.074.327-.184.492-.258.039 0 .078-.039.12-.039.165-.07.368-.144.57-.219a8.78 8.78 0 00.571-.222c.04 0 .082-.04.121-.04.164-.034.328-.109.489-.144.043 0 .125-.039.164-.039.203-.035.367-.074.57-.11h.043l.61-.113c.042 0 .12 0 .163-.035.164 0 .325-.039.489-.039h.203c.203 0 .41-.035.652-.035h.531c.16 0 .286 0 .446.035h.082c.328.04.652.074.98.149 4.645.886 8.192 4.66 8.192 9.172zM52.527 7.508h64.102l-14.711 39.387c-.61.113-1.223.296-1.832.48l-15.484-28.66L69.074 47.19c-.613-.183-1.265-.296-1.914-.406zM81.664 59.8c-.773-3.477-2.73-6.582-5.5-8.875l8.438-15.457 8.515 15.789c-2.527 2.293-4.36 5.215-5.094 8.543zM61.25 53.96c.203-.04.367-.074.57-.113h.121c.164-.035.329-.035.489-.075h.164c.164 0 .285-.035.449-.035h1.59c.16 0 .285.035.406.035.082 0 .121 0 .203.04.164.035.285.035.45.074.038 0 .081 0 .163.035.204.039.407.074.57.113h.04c.164.035.328.07.488.145.043 0 .082.039.164.039.121.035.285.074.406.148.043 0 .082.035.125.035.16.075.325.114.489.188h.039c.203.07.367.144.531.258h.04c.163.074.327.183.491.257.04 0 .04.04.078.04.164.07.286.183.45.257l.043.035c.488.333.937.704 1.382 1.075l.043.035c.407.406.813.851 1.141 1.332 1.059 1.48 1.672 3.219 1.672 5.105 0 5.141-4.606 9.317-10.27 9.317s-10.27-4.176-10.27-9.317c-.042-4.328 3.259-7.988 7.743-9.023zm-40.102-.262c5.665 0 10.27 4.18 10.27 9.32 0 5.141-4.605 9.32-10.27 9.32-5.664 0-10.27-4.179-10.27-9.32 0-5.14 4.606-9.32 10.27-9.32zm94.79 32.067c-.895 4.73-4.118 8.875-8.844 11.351-4.442 2.332-9.903 3.07-15.649 3.809-3.136.406-6.437.851-9.617 1.554-8.476 1.887-16.625 5.586-24.531 9.133-10.106 4.551-19.645 8.84-28.484 8.84-4.606 0-8.723-1.183-12.633-3.66-8.965-5.621-8.52-16.16-7.457-21.93.976-5.402 3.707-10.468 6.316-15.312.16-.297.285-.555.445-.852.899.297 1.836.52 2.813.668-1.547 7.84 2.851 15.938 11.41 19.934l1.55.738 1.669-.555c7.133-2.293 13.734-6.027 19.562-11.02 3.301-2.812 6.114-5.843 8.477-9.136.937.149 1.875.188 2.812.188 8.477 0 15.606-5.29 17.645-12.391h6.844c2.039 7.137 9.171 12.39 17.648 12.39 3.383 0 6.52-.85 9.207-2.292 1.063 2.773 1.387 5.656.817 8.543zm0 0"
        ></path>
    </symbol>
</svg>
